<svg aria-hidden="true" focusable="false" data-prefix="fad" data-icon="door-closed" class="svg-inline--fa fa-door-closed fa-w-20" role="img" xmlns="http://www.w3.org/2000/svg" viewBox="0 0 640 512"><g class="fa-group"><path class="fa-secondary" fill="currentColor" d="M640 464v32a16 16 0 0 1-16 16H16a16 16 0 0 1-16-16v-32a16 16 0 0 1 16-16h608a16 16 0 0 1 16 16z" opacity="0.4"></path><path class="fa-primary" fill="currentColor" d="M464 0H176c-26.47 0-48 22.78-48 50.8V448h384V50.8C512 22.78 490.47 0 464 0zm-48 288a32 32 0 1 1 32-32 32 32 0 0 1-32 32z"></path></g></svg>