<svg id="gymnastics" enable-background="new 0 0 300 300" height="512" viewBox="0 0 300 300" width="512" xmlns="http://www.w3.org/2000/svg"><g><path d="m74 146c-7.719 0-14 6.281-14 14s6.281 14 14 14 14-6.281 14-14-6.281-14-14-14zm0 20c-3.309 0-6-2.691-6-6s2.691-6 6-6 6 2.691 6 6-2.691 6-6 6z"/><path d="m224.329 236.115c-2.362 0-4.276 1.915-4.276 4.277s1.915 4.276 4.276 4.276 4.277-1.915 4.277-4.276-1.916-4.277-4.277-4.277z"/><path d="m48.329 104.115c-2.362 0-4.276 1.915-4.276 4.277s1.915 4.276 4.276 4.276 4.277-1.915 4.277-4.276-1.916-4.277-4.277-4.277z"/><path d="m244 166v8c0 2.209 1.791 4 4 4s4-1.791 4-4v-8c0-2.209-1.791-4-4-4s-4 1.791-4 4z"/><path d="m248 186c-2.209 0-4 1.791-4 4v8c0 2.209 1.791 4 4 4s4-1.791 4-4v-8c0-2.209-1.791-4-4-4z"/><path d="m240 178h-8c-2.209 0-4 1.791-4 4s1.791 4 4 4h8c2.209 0 4-1.791 4-4s-1.791-4-4-4z"/><path d="m264 178h-8c-2.209 0-4 1.791-4 4s1.791 4 4 4h8c2.209 0 4-1.791 4-4s-1.791-4-4-4z"/><path d="m182.643 181.957h-14.643c-2.209 0-4 1.791-4 4v26.391c0 9.734 7.918 17.652 17.652 17.652h.695c9.734 0 17.652-7.918 17.652-17.652v-13.033c.001-9.571-7.786-17.358-17.356-17.358zm9.357 30.391c0 5.322-4.33 9.652-9.652 9.652h-.695c-5.322 0-9.652-4.33-9.652-9.652v-22.391h10.643c5.16 0 9.357 4.197 9.357 9.357v13.034z"/><path d="m234.69 135.205c.527-2.08.199-4.232-.924-6.059-1.971-3.211-5.963-4.578-9.486-3.25l-47.904 18.025v-16.369l89.998-66.332c1.33-.98 1.92-2.68 1.486-4.273-.436-1.594-1.807-2.758-3.449-2.926l-5.768-.594c-8.219-.844-16.391.814-23.633 4.799l-80.342 44.38-88.291-51.162c-5.932-3.475-12.354-5.918-19.088-7.264l-10.504-2.102c-1.82-.365-3.643.566-4.418 2.248s-.295 3.674 1.16 4.818l92.083 72.376 7.406 128.137c.271 4.678 4.154 8.342 8.84 8.342 4.545 0 8.328-3.408 8.805-7.928l7.105-67.713 73.227-42.266c1.857-1.072 3.171-2.808 3.697-4.887zm4.183-69.972c4.338-2.389 9.094-3.736 13.973-3.98l-80.134 59.062-12.266-11.758zm-176.523-6.877 82.043 47.543-14.586 8.745-77.387-60.825c3.444 1.166 6.764 2.681 9.93 4.537zm89.65 118.094c-1.109.641-1.844 1.773-1.979 3.047l-7.318 69.74c-.088.887-1.646.848-1.699-.039l-7.371-127.521 17.181-10.3 17.561 15.928v22.397c0 1.312.645 2.541 1.723 3.289 1.08.744 2.459.916 3.686.455l53.209-20.281z"/></g></svg>