<svg xmlns="http://www.w3.org/2000/svg" width="64" height="64" aria-hidden="true" focusable="false" role="img"><path fill="currentColor" d="M61 50h-5.21A13.06 13.06 0 0043 39h-.23A15.68 15.68 0 0032 35a16 16 0 00-10.6 4H21A13.06 13.06 0 008.17 50H3a1 1 0 00-1 1 11 11 0 0011 11h38a11 11 0 0011-11 1 1 0 00-1-1zm-7.23 0h-2a9 9 0 00-5.86-6.51 13.17 13.17 0 00-1.29-2.36A11.08 11.08 0 0153.77 50zm-28.19 0a5 5 0 00-9.16 0H14.3a7 7 0 0113.4 0zm-2.35 0h-4.46a3 3 0 014.46 0zM32 41a10 10 0 017 2.92A8.9 8.9 0 0037.3 45a8 8 0 00-5.3-2 7.89 7.89 0 00-5.32 2A8.47 8.47 0 0025 43.92 10 10 0 0132 41zm3.86 9a4 4 0 00-6.71-1.8 9.3 9.3 0 00-1.06-1.74A5.92 5.92 0 0132 45a6 6 0 015.91 5zm-2.14 0h-3.44a2 2 0 013.44 0zm13.82 0a5 5 0 00-8-1.63 7.83 7.83 0 00-.93-1.85 7 7 0 0111 3.48zm-2.35 0h-4.46a3 3 0 014.46 0zM32 37c5 0 9.27 2.32 11.41 6H43a9 9 0 00-1.87.2A12 12 0 0032 39a11.88 11.88 0 00-5.4 1.3 13.17 13.17 0 00-2.41-.89A13.9 13.9 0 0132 37zm-11 4a10.88 10.88 0 013.54.61 13.1 13.1 0 00-1.65 1.6A8.95 8.95 0 0012.23 50h-2.05A11.08 11.08 0 0121 41zm30 19H13a9 9 0 01-8.94-8h55.88A9 9 0 0151 60zM8.82 14H6v2h2.31c-.08.17-.16.34-.25.5a8.09 8.09 0 000 8 6.06 6.06 0 010 6 8 8 0 000 8 8.73 8.73 0 01.53 1.37c.07.23.15.46.24.71l1.88-.68c-.08-.23-.15-.44-.21-.64a11.79 11.79 0 00-.7-1.76 6.06 6.06 0 010-6 8.09 8.09 0 000-8 6.06 6.06 0 010-6 8.09 8.09 0 000-8 6.06 6.06 0 010-6 1 1 0 000-1 1 1 0 00-.87-.5H6v2h1.4A8 8 0 007 6H6v2h1.15a8 8 0 00.66 2H6v2h2.67a6.11 6.11 0 01.15 2z"/><path fill="currentColor" d="M56.54 4.13L27.4 5l-1.52-1.54A5 5 0 0022.34 2H13a1 1 0 00-1 .86 8.11 8.11 0 00.19 7.64 6.06 6.06 0 010 6 8.09 8.09 0 000 8 6.06 6.06 0 010 6 8.09 8.09 0 000 8 5.6 5.6 0 01.36.74l1.86-.75a9 9 0 00-.48-1 6.06 6.06 0 010-6 8.09 8.09 0 000-8 6.06 6.06 0 010-6A8.34 8.34 0 0014.6 16h1.84a4.59 4.59 0 01-.24.5 8.09 8.09 0 000 8 6.06 6.06 0 010 6 8.06 8.06 0 00-.27 7.5l1.8-.86a6.05 6.05 0 01.21-5.61 8.09 8.09 0 000-8 6.06 6.06 0 010-6 8.25 8.25 0 00.64-1.5h3.76a5 5 0 003.54-1.46L27.39 13l29 1.71a5.3 5.3 0 004-9.1 5.32 5.32 0 00-3.85-1.48zM59 11.84a3.25 3.25 0 01-2.46.89L27.06 11a1.06 1.06 0 00-.77.29l-1.83 1.83a3 3 0 01-2.12.88H15a8.39 8.39 0 00-.14-2H20v-2h-5.82c-.08-.17-.15-.34-.24-.5a5.88 5.88 0 01-.6-1.5H20V6h-6.83a5.84 5.84 0 01.51-2h8.66a3 3 0 012.12.88l1.83 1.83A1 1 0 0027 7l29.6-.87a3.26 3.26 0 012.4.93 3.31 3.31 0 010 4.78z"/></svg>