<svg aria-hidden="true" focusable="false" data-prefix="fad" data-icon="ticket-alt" class="svg-inline--fa fa-ticket-alt fa-w-18" role="img" xmlns="http://www.w3.org/2000/svg" viewBox="0 0 576 512"><g class="fa-group"><path class="fa-secondary" fill="currentColor" d="M576 208v-96a48 48 0 0 0-48-48H48a48 48 0 0 0-48 48v96a48 48 0 0 1 0 96v96a48 48 0 0 0 48 48h480a48 48 0 0 0 48-48v-96a48 48 0 0 1 0-96zm-96 176H96V128h384z" opacity="0.4"></path><path class="fa-primary" fill="currentColor" d="M480 128v256H96V128z"></path></g></svg>